<!-- Generated by IcoMoon.io -->
<svg version="1.1" xmlns="http://www.w3.org/2000/svg" width="1024" height="1024" viewBox="0 0 1024 1024">
<title></title>
<g id="icomoon-ignore">
</g>
<path d="M725.333 469.333v-256c0-46.933-38.4-85.333-85.333-85.333h-256c-46.933 0-85.333 38.4-85.333 85.333v85.333h-85.333c-46.933 0-85.333 38.4-85.333 85.333v426.667c0 46.933 38.4 85.333 85.333 85.333h256v-170.667h85.333v170.667h256c46.933 0 85.333-38.4 85.333-85.333v-256c0-46.933-38.4-85.333-85.333-85.333h-85.333zM298.667 810.667h-85.333v-85.333h85.333v85.333zM298.667 640h-85.333v-85.333h85.333v85.333zM298.667 469.333h-85.333v-85.333h85.333v85.333zM469.333 640h-85.333v-85.333h85.333v85.333zM469.333 469.333h-85.333v-85.333h85.333v85.333zM469.333 298.667h-85.333v-85.333h85.333v85.333zM640 640h-85.333v-85.333h85.333v85.333zM640 469.333h-85.333v-85.333h85.333v85.333zM640 298.667h-85.333v-85.333h85.333v85.333zM810.667 810.667h-85.333v-85.333h85.333v85.333zM810.667 640h-85.333v-85.333h85.333v85.333z"></path>
</svg>
