<!-- Generated by IcoMoon.io -->
<svg version="1.1" xmlns="http://www.w3.org/2000/svg" width="1056" height="1024" viewBox="0 0 1056 1024">
<title></title>
<g id="icomoon-ignore">
</g>
<path d="M865.251 510.573h-674.502c-26.563 0-48.179 21.613-48.179 48.176s21.616 48.179 48.179 48.179h674.502c26.563 0 48.179-21.616 48.179-48.179s-21.616-48.176-48.179-48.176z"></path>
<path d="M869.683 575.421c-8.704-2.442-17.443 2.506-19.85 11.050l-1.254 4.4h-641.13l-1.284-4.4c-2.409-8.544-11.209-13.427-19.85-11.050-8.544 2.438-13.459 11.338-11.016 19.85l44.26 154.941c13.714 48.019 58.168 81.552 108.083 81.552h400.685c49.942 0 94.365-33.533 108.080-81.552l44.259-154.941c2.474-8.512-2.474-17.411-10.982-19.85zM327.67 767.523c-21.39 0-40.469-14.358-46.315-34.947l-20.845-73.037c-2.441-8.544 2.505-17.411 11.016-19.85 8.607-2.442 17.441 2.534 19.85 11.050l20.845 73.037c1.992 6.842 8.319 11.661 15.449 11.661 8.864 0 16.061 7.194 16.061 16.061 0 8.864-7.194 16.026-16.061 16.026z"></path>
<path d="M358.509 801.312c-7.933-3.885-17.539-0.768-21.552 7.197l-32.12 64.237c-3.951 7.933-0.739 17.571 7.195 21.555 2.344 1.155 4.786 1.702 7.195 1.702 5.876 0 11.531-3.245 14.356-8.896l32.118-64.24c3.952-7.936 0.739-17.571-7.194-21.555z"></path>
<path d="M751.162 872.778l-32.118-64.237c-3.981-7.968-13.619-11.146-21.552-7.197-7.933 3.984-11.146 13.619-7.197 21.552l32.118 64.24c2.829 5.619 8.48 8.864 14.358 8.864 2.41 0 4.851-0.547 7.197-1.67 7.933-3.984 11.146-13.619 7.194-21.552z"></path>
<path d="M787.683 128c-16.381 0-31.798 6.391-43.392 17.987l-50.973 50.973c-6.262 6.263-6.262 16.445 0 22.708s16.445 6.263 22.707 0l50.973-50.941c5.491-5.524 12.848-8.576 20.845-8.576 16.125 0 29.229 13.105 29.229 29.228v337.251c0 8.864 7.194 16.061 16.061 16.061 8.864 0 16.058-7.197 16.090-16.093v-337.25c0.003-33.821-27.491-61.348-61.539-61.348z"></path>
<path d="M732.083 213.020l-32.118-32.118c-3.661-3.662-8.768-5.364-13.971-4.497l-80.298 13.169c-5.91 0.964-10.762 5.139-12.656 10.792s-0.448 11.948 3.728 16.22l96.355 99.248c3.053 3.18 7.261 4.884 11.501 4.884 1.507 0 3.050-0.224 4.56-0.675 5.715-1.67 10.051-6.391 11.21-12.238l16.058-80.297c1.059-5.236-0.579-10.666-4.368-14.487z"></path>
<path d="M523.28 322.576c-6.266-6.262-16.448-6.262-22.71 0l-32.118 32.118c-6.262 6.266-6.262 16.448 0 22.71 3.149 3.114 7.258 4.691 11.37 4.691s8.224-1.574 11.341-4.691l32.118-32.118c6.262-6.266 6.262-16.445 0-22.71z"></path>
<path d="M587.517 386.816c-6.266-6.266-16.445-6.266-22.71 0l-32.118 32.118c-6.262 6.262-6.262 16.445 0 22.707 3.149 3.117 7.258 4.691 11.37 4.691s8.224-1.574 11.341-4.691l32.118-32.118c6.262-6.262 6.262-16.445 0-22.707z"></path>
<path d="M619.635 290.457c-6.262-6.263-16.445-6.263-22.707 0l-32.118 32.119c-6.266 6.262-6.266 16.445 0 22.707 3.149 3.117 7.258 4.691 11.37 4.691s8.221-1.574 11.338-4.691l32.118-32.117c6.266-6.263 6.266-16.446 0-22.709z"></path>
</svg>
