<!-- Generated by IcoMoon.io -->
<svg version="1.1" xmlns="http://www.w3.org/2000/svg" width="1024" height="1024" viewBox="0 0 1024 1024">
<title></title>
<g id="icomoon-ignore">
</g>
<path d="M761.6 472.614c72.682 0 134.4 60.563 134.4 137.846v118.154h-57.6v39.386h-38.4v-39.386h-576v39.386h-38.4v-39.386h-57.6v-118.154c0-74.544 59.629-137.846 134.4-137.846h499.2zM723.2 256c51.626 0 96.013 42.567 96 98.461l0.013 94.083c-17.459-9.818-36.995-15.312-57.613-15.312l-38.4-0.022c0-33.725-26.925-59.056-57.6-59.056h-115.2c-14.752 0-28.208 5.686-38.397 15.040-10.179-9.344-23.642-15.040-38.403-15.040h-115.2c-31.805 0-57.589 26.438-57.6 59.056l-38.4 0.022c-20.612 0-40.141 5.491-57.6 15.302v-94.074c0-52.947 41.406-98.461 96-98.461h422.4zM473.6 413.53c10.419 0 19.2 9.846 19.2 19.702l-153.6-0.022c0-12.048 9.354-19.67 19.2-19.67l115.2-0.010zM665.6 413.67c10.864-0.141 19.19 9.45 19.2 19.539h-153.6c0-12.218 9.354-19.67 19.2-19.67l115.2 0.131z"></path>
</svg>
