<!-- Generated by IcoMoon.io -->
<svg version="1.1" xmlns="http://www.w3.org/2000/svg" width="1024" height="1024" viewBox="0 0 1024 1024">
<title></title>
<g id="icomoon-ignore">
</g>
<path d="M876.282 340.112l-320.858-199.976c-26.435-16.324-60.496-16.157-86.774 0.35l-321.188 199.795c-19.944 12.534-25.455 38.122-12.334 57.149 13.139 19.027 39.941 24.304 59.902 11.75l317.306-197.389 316.918 197.556c7.28 4.49 15.414 6.611 23.462 6.611 14.205 0 28.061-6.627 36.336-18.813 12.982-19.126 7.242-44.63-12.771-57.034z"></path>
<path d="M774.742 600.099c-2.451-14.4-14.662-25.053-28.902-25.053h-16.365l-6.221-66.368c-6.64-70.979-64.102-124.678-133.661-124.678h-155.158c-69.574 0-127.020 53.715-133.677 124.678l-6.203 66.368h-16.383c-14.256 0-26.45 10.653-28.934 25.053l-24.355 141.558c-3.020 17.542 1.819 35.606 12.989 49.222 10.749 13.117 26.58 20.941 43.141 21.523v23.504c0 33.274 26.011 60.093 58.5 60.093h18.48c32.458 0 58.858-26.819 58.858-60.093v-23.123h190.49v23.072c0 33.293 26.189 60.144 58.646 60.144h18.493c32.458 0 58.682-26.851 58.682-60.144v-23.453c16.56-0.582 32.294-8.339 43.011-21.44 11.171-13.651 15.946-31.613 12.957-49.19l-24.387-141.674zM332.502 758.186c-27.393 0-49.605-22.755-49.605-50.87s22.212-50.886 49.605-50.886c27.405 0 49.635 22.755 49.635 50.886 0 28.115-22.23 50.87-49.635 50.87zM344.874 575.046l5.731-61.226c4.173-44.512 40.202-78.035 83.83-78.035h8.947v19.242c0 16.698 12.941 29.997 29.21 29.997h78.845c16.269 0 29.437-13.299 29.437-29.997v-19.226h8.72c43.629 0 79.658 33.526 83.814 78.038l5.747 61.222-334.282-0.016zM691.462 758.186c-27.392 0-49.603-22.755-49.603-50.87s22.211-50.886 49.603-50.886c27.408 0 49.635 22.755 49.635 50.886 0 28.115-22.227 50.87-49.635 50.87z"></path>
</svg>
