<!-- Generated by IcoMoon.io -->
<svg version="1.1" xmlns="http://www.w3.org/2000/svg" width="1024" height="1024" viewBox="0 0 1024 1024">
<title></title>
<g id="icomoon-ignore">
</g>
<path d="M896 462.161v369.839c-0.009 11.601-3.149 22.98-9.097 32.939-5.943 9.958-14.473 18.125-24.678 23.633-9.25 5.005-19.622 7.561-30.135 7.424h-192.23c-8.486 0-16.627-3.371-22.626-9.37-6.003-6.003-9.374-14.144-9.374-22.63v-192.026c0-8.486-3.371-16.627-9.37-22.63-6.003-5.999-14.144-9.37-22.63-9.37h-128c-8.486 0-16.627 3.371-22.626 9.37-6.001 6.003-9.373 14.144-9.373 22.63v192.026c0 8.486-3.372 16.627-9.373 22.63-6.001 5.999-14.141 9.37-22.627 9.37h-191.852c-9.073 0.026-18.047-1.89-26.319-5.619s-15.652-9.182-21.645-15.991c-10.521-12.169-16.227-27.763-16.044-43.849v-368.38c0.007-8.917 1.873-17.732 5.481-25.89 3.607-8.154 8.875-15.466 15.468-21.47l319.971-290.932c11.755-10.766 27.115-16.738 43.055-16.74 15.936-0.001 31.3 5.968 43.055 16.732l320.026 290.944c6.592 6.005 11.857 13.317 15.467 21.475 3.605 8.154 5.47 16.969 5.478 25.886z"></path>
</svg>
