<!-- Generated by IcoMoon.io -->
<svg version="1.1" xmlns="http://www.w3.org/2000/svg" width="1056" height="1024" viewBox="0 0 1056 1024">
<title></title>
<g id="icomoon-ignore">
</g>
<path d="M873.229 288.002h-139.392c-21.418 0-38.774 17.173-38.774 38.385v99.648h-100.634c-21.424 0-38.778 17.165-38.778 38.381v99.651h-100.637c-21.424 0-38.774 17.194-38.774 38.384v104.451h-105.465c-10.291 0-20.152 4.042-27.42 11.232-7.274 7.194-11.354 17.002-11.354 27.152l0.012 80.31c0 21.235 17.363 38.406 38.773 38.406h562.443c21.424 0 38.771-17.171 38.771-38.406v-499.21c0.003-21.212-17.347-38.385-38.771-38.385z"></path>
<path d="M680.448 167.852c-10.288-10.285-27.142-10.483-37.686-0.476-170.982 162.4-333.647 321.021-490.951 474.384-5.005 4.88-7.811 11.507-7.811 18.39v177.856c0 14.333 11.929 25.997 26.654 25.997 14.71 0 26.66-11.658 26.66-25.997v-167.104c154.749-150.89 314.74-306.806 482.637-466.302 10.538-10.005 10.752-26.469 0.496-36.748z"></path>
</svg>
