<!-- Generated by IcoMoon.io -->
<svg version="1.1" xmlns="http://www.w3.org/2000/svg" width="1024" height="1024" viewBox="0 0 1024 1024">
<title></title>
<g id="icomoon-ignore">
</g>
<path d="M298.667 896.004h-128c-23.467 0-42.667-19.2-42.667-42.667v-482.562c0-17.92 10.667-33.707 27.307-40.107l469.333-180.48c6.49-2.504 13.487-3.383 20.395-2.563 6.903 0.82 13.504 3.316 19.226 7.27s10.389 9.246 13.598 15.416c3.204 6.17 4.86 13.030 4.809 19.984v236.375h-341.333c-23.467 0-42.667 19.2-42.667 42.667v426.667zM725.333 512.004h-298.667c-23.467 0-42.667 19.2-42.667 42.667v298.667c0 23.467 19.2 42.667 42.667 42.667h170.667v-170.667c0-23.467 19.2-42.667 42.667-42.667s42.667 19.2 42.667 42.667v170.667h170.667c23.467 0 42.667-19.2 42.667-42.667v-341.333c0-46.933-38.4-85.333-85.333-85.333s-85.333 38.4-85.333 85.333z"></path>
</svg>
