<!-- Generated by IcoMoon.io -->
<svg version="1.1" xmlns="http://www.w3.org/2000/svg" width="1024" height="1024" viewBox="0 0 1024 1024">
<title></title>
<g id="icomoon-ignore">
</g>
<path d="M512 42.667c101.841 0 199.514 42.384 271.531 117.828 72.013 75.444 112.469 177.767 112.469 284.459 0 192.23-123.84 369.169-366.848 531.157-5.129 3.409-11.076 5.222-17.152 5.222s-12.023-1.813-17.152-5.222c-243.008-161.988-366.848-338.927-366.848-531.157 0-106.692 40.457-209.015 112.471-284.459s169.686-117.828 271.529-117.828zM512 310.859c-33.946 0-66.505 14.128-90.51 39.276s-37.49 59.256-37.49 94.819c0 35.567 13.486 69.675 37.49 94.822s56.564 39.275 90.51 39.275c33.946 0 66.505-14.127 90.509-39.275s37.491-59.255 37.491-94.822c0-35.563-13.487-69.67-37.491-94.819s-56.563-39.276-90.509-39.276z"></path>
</svg>
